<?xml version="1.0" encoding="UTF-8" standalone="no"?>
<svg
   xmlns:dc="http://purl.org/dc/elements/1.1/"
   xmlns:cc="http://creativecommons.org/ns#"
   xmlns:rdf="http://www.w3.org/1999/02/22-rdf-syntax-ns#"
   xmlns:svg="http://www.w3.org/2000/svg"
   xmlns="http://www.w3.org/2000/svg"
   xmlns:sodipodi="http://sodipodi.sourceforge.net/DTD/sodipodi-0.dtd"
   xmlns:inkscape="http://www.inkscape.org/namespaces/inkscape"
   version="1.1"
   width="24"
   height="24"
   viewBox="0 0 24 24"
   id="svg2"
   inkscape:version="0.91 r13725"
   sodipodi:docname="jb_aspects.svg"
   inkscape:export-filename="/home/juergen/Projekte/Android/Android_Studio/Diaspora-Native-WebApp-1.5.4/app/src/main/Templates/jb_aspects.png"
   inkscape:export-xdpi="172"
   inkscape:export-ydpi="172">
  <metadata
     id="metadata10">
    <rdf:RDF>
      <cc:Work
         rdf:about="">
        <dc:format>image/svg+xml</dc:format>
        <dc:type
           rdf:resource="http://purl.org/dc/dcmitype/StillImage" />
      </cc:Work>
    </rdf:RDF>
  </metadata>
  <defs
     id="defs8" />
  <sodipodi:namedview
     pagecolor="#ffffff"
     bordercolor="#666666"
     borderopacity="1"
     objecttolerance="10"
     gridtolerance="10"
     guidetolerance="10"
     inkscape:pageopacity="0"
     inkscape:pageshadow="2"
     inkscape:window-width="1366"
     inkscape:window-height="726"
     id="namedview6"
     showgrid="false"
     inkscape:zoom="9.8333333"
     inkscape:cx="12"
     inkscape:cy="12"
     inkscape:window-x="0"
     inkscape:window-y="0"
     inkscape:window-maximized="1"
     inkscape:current-layer="svg2" />
  <path
     d="M18,19C16.89,19 16,18.1 16,17C16,15.89 16.89,15 18,15A2,2 0 0,1 20,17A2,2 0 0,1 18,19M18,13A4,4 0 0,0 14,17A4,4 0 0,0 18,21A4,4 0 0,0 22,17A4,4 0 0,0 18,13M12,11.1A1.9,1.9 0 0,0 10.1,13A1.9,1.9 0 0,0 12,14.9A1.9,1.9 0 0,0 13.9,13A1.9,1.9 0 0,0 12,11.1M6,19C4.89,19 4,18.1 4,17C4,15.89 4.89,15 6,15A2,2 0 0,1 8,17A2,2 0 0,1 6,19M6,13A4,4 0 0,0 2,17A4,4 0 0,0 6,21A4,4 0 0,0 10,17A4,4 0 0,0 6,13M12,4A2,2 0 0,1 14,6A2,2 0 0,1 12,8C10.89,8 10,7.1 10,6C10,4.89 10.89,4 12,4M12,10A4,4 0 0,0 16,6A4,4 0 0,0 12,2A4,4 0 0,0 8,6A4,4 0 0,0 12,10Z"
     id="path4" />
</svg>
