<?xml version="1.0" encoding="UTF-8" standalone="no"?>
<svg
   xmlns:dc="http://purl.org/dc/elements/1.1/"
   xmlns:cc="http://creativecommons.org/ns#"
   xmlns:rdf="http://www.w3.org/1999/02/22-rdf-syntax-ns#"
   xmlns:svg="http://www.w3.org/2000/svg"
   xmlns="http://www.w3.org/2000/svg"
   xmlns:sodipodi="http://sodipodi.sourceforge.net/DTD/sodipodi-0.dtd"
   xmlns:inkscape="http://www.inkscape.org/namespaces/inkscape"
   version="1.1"
   width="24"
   height="24"
   viewBox="0 0 24 24"
   id="svg2"
   inkscape:version="0.91 r13725"
   sodipodi:docname="jb_notification.svg"
   inkscape:export-filename="/home/juergen/Schreibtisch/jb_notification.png"
   inkscape:export-xdpi="172"
   inkscape:export-ydpi="172">
  <metadata
     id="metadata10">
    <rdf:RDF>
      <cc:Work
         rdf:about="">
        <dc:format>image/svg+xml</dc:format>
        <dc:type
           rdf:resource="http://purl.org/dc/dcmitype/StillImage" />
      </cc:Work>
    </rdf:RDF>
  </metadata>
  <defs
     id="defs8" />
  <sodipodi:namedview
     pagecolor="#ffffff"
     bordercolor="#666666"
     borderopacity="1"
     objecttolerance="10"
     gridtolerance="10"
     guidetolerance="10"
     inkscape:pageopacity="0"
     inkscape:pageshadow="2"
     inkscape:window-width="1366"
     inkscape:window-height="726"
     id="namedview6"
     showgrid="false"
     inkscape:zoom="9.8333333"
     inkscape:cx="12"
     inkscape:cy="12"
     inkscape:window-x="0"
     inkscape:window-y="0"
     inkscape:window-maximized="1"
     inkscape:current-layer="svg2" />
  <path
     d="m 12.008475,22 c 0.14,0 0.27,0 0.4,-0.04 0.65,-0.14 1.19,-0.58 1.44,-1.18 0.1,-0.24 0.16,-0.51 0.16,-0.78 l -4,0 a 2,2 0 0 0 2,2 m 6.5,-11.5 c 0,-3.07 -2.14,-5.64 -5,-6.32 l 0,-0.68 a 1.5,1.5 0 0 0 -1.5,-1.5 1.5,1.5 0 0 0 -1.5,1.5 l 0,0.68 C 7.6384746,4.86 5.5084746,7.43 5.5084746,10.5 l 0,5.5 -2,2 0,1 17.0000004,0 0,-1 -2,-2 m 1.97,-6 2,0 c -0.15,-3.21 -1.73,-6.03 -4.12,-7.85 l -1.43,1.43 c 2.04,1.42 3.4,3.77 3.55,6.42 M 7.0884746,3.58 l -1.43,-1.43 c -2.39,1.82 -3.97,4.64 -4.15,7.85 l 2,0 c 0.18,-2.65 1.54,-5 3.58,-6.42 z"
     id="path4"
     inkscape:connector-curvature="0" />
</svg>
