<?xml version="1.0" encoding="UTF-8" standalone="no"?>
<!-- Created with Inkscape (http://www.inkscape.org/) -->

<svg
   xmlns:dc="http://purl.org/dc/elements/1.1/"
   xmlns:cc="http://creativecommons.org/ns#"
   xmlns:rdf="http://www.w3.org/1999/02/22-rdf-syntax-ns#"
   xmlns:svg="http://www.w3.org/2000/svg"
   xmlns="http://www.w3.org/2000/svg"
   xmlns:sodipodi="http://sodipodi.sourceforge.net/DTD/sodipodi-0.dtd"
   xmlns:inkscape="http://www.inkscape.org/namespaces/inkscape"
   id="svg2"
   version="1.1"
   inkscape:version="0.48.5 r10040"
   width="475"
   height="475"
   xml:space="preserve"
   sodipodi:docname="Logo WaveApp.ai"><metadata
     id="metadata8"><rdf:RDF><cc:Work
         rdf:about=""><dc:format>image/svg+xml</dc:format><dc:type
           rdf:resource="http://purl.org/dc/dcmitype/StillImage" /><dc:title></dc:title></cc:Work></rdf:RDF></metadata><defs
     id="defs6"><clipPath
       clipPathUnits="userSpaceOnUse"
       id="clipPath16"><path
         d="M 0,380 380,380 380,0 0,0 0,380 z"
         id="path18" /></clipPath><clipPath
       clipPathUnits="userSpaceOnUse"
       id="clipPath56"><path
         d="m 189.858,368.508 c -98.223,0 -178.394,-79.33 -178.483,-176.613 l 0,0 C 11.286,91.859 90.611,11.525 189.527,11.482 l 0,0 c 97.835,-0.038 178.201,79.657 179.09,175.908 l 0,0 C 369.55,288.416 288.109,368.518 191.76,368.518 l 0,0 c -0.633,0 -1.268,-0.003 -1.902,-0.01"
         id="path58" /></clipPath></defs><sodipodi:namedview
     pagecolor="#ffffff"
     bordercolor="#666666"
     borderopacity="1"
     objecttolerance="10"
     gridtolerance="10"
     guidetolerance="10"
     inkscape:pageopacity="0"
     inkscape:pageshadow="2"
     inkscape:window-width="640"
     inkscape:window-height="480"
     id="namedview4"
     showgrid="false"
     inkscape:zoom="0.49684211"
     inkscape:cx="237.5"
     inkscape:cy="237.5"
     inkscape:window-x="0"
     inkscape:window-y="0"
     inkscape:window-maximized="0"
     inkscape:current-layer="g10" /><g
     id="g10"
     inkscape:groupmode="layer"
     inkscape:label="Logo WaveApp"
     transform="matrix(1.25,0,0,-1.25,0,475)"><g
       id="g12"><g
         id="g14"
         clip-path="url(#clipPath16)"><g
           id="g20"
           transform="translate(124.0137,185.9531)"><path
             d="m 0,0 c 0,-33.572 -0.017,-67.149 0.008,-100.726 0.009,-13.09 8.344,-21.731 21.396,-21.782 29.224,-0.119 58.453,-0.119 87.678,0 12.962,0.051 21.509,8.79 21.514,21.774 0.038,66.979 0.034,133.954 0.004,200.932 -0.009,13.431 -8.377,21.906 -21.786,21.944 -29.055,0.086 -58.105,0.089 -87.159,0 C 8.067,122.104 0.013,113.837 0.004,100.207 -0.017,66.805 0,33.402 0,0 m 65.844,182.555 c 97.177,1.062 179.698,-79.428 178.759,-181.118 -0.889,-96.25 -81.255,-175.946 -179.09,-175.908 -98.915,0.042 -178.241,80.376 -178.152,180.413 0.09,97.283 80.261,176.613 178.483,176.613"
             style="fill:#08a7c1;fill-opacity:1;fill-rule:evenodd;stroke:none"
             id="path22" /></g><g
           id="g24"
           transform="translate(189.4243,291.1885)"><path
             d="m 0,0 0,-0.021 c -3.816,0 -7.68,0.339 -11.433,-0.158 -1.602,-0.208 -2.975,-2.155 -4.454,-3.311 1.394,-1.258 2.737,-3.528 4.186,-3.6 7.617,-0.369 15.271,-0.369 22.888,-0.025 1.521,0.068 2.954,2.193 4.428,3.37 -1.564,1.25 -2.997,3.307 -4.714,3.579 C 7.349,0.391 3.643,0 0,0 m -0.259,-195.34 c -6.673,-0.059 -11.871,-5.376 -11.765,-12.036 0.098,-6.358 5.317,-11.573 11.667,-11.667 6.358,-0.094 12.129,5.551 12.134,11.862 0.009,6.546 -5.431,11.901 -12.036,11.841 m -56.621,89.828 c 0,-24.881 0.152,-49.761 -0.124,-74.641 -0.063,-5.407 1.679,-6.724 6.843,-6.695 33.232,0.204 66.465,0.098 99.697,0.111 7.072,0 7.115,0.038 7.119,6.86 0.008,49.761 -0.055,99.526 0.098,149.288 0.013,4.888 -1.241,6.622 -6.397,6.587 -33.581,-0.207 -67.162,-0.233 -100.742,0.022 -5.491,0.039 -6.647,-1.815 -6.601,-6.885 0.23,-24.881 0.102,-49.762 0.107,-74.647 m -8.531,0.277 c 0,33.402 -0.017,66.804 0.005,100.207 0.008,13.63 8.062,21.897 21.65,21.934 29.055,0.09 58.105,0.086 87.159,0 13.41,-0.037 21.778,-8.512 21.786,-21.943 0.031,-66.979 0.035,-133.953 -0.003,-200.933 -0.005,-12.983 -8.552,-21.722 -21.515,-21.773 -29.225,-0.119 -58.453,-0.119 -87.678,0 -13.052,0.051 -21.387,8.691 -21.395,21.782 -0.026,33.576 -0.009,67.153 -0.009,100.726"
             style="fill:#ffffff;fill-opacity:1;fill-rule:evenodd;stroke:none"
             id="path26" /></g><g
           id="g28"
           transform="translate(189.165,95.8486)"><path
             d="m 0,0 c 6.605,0.06 12.045,-5.295 12.037,-11.841 -0.005,-6.311 -5.777,-11.956 -12.135,-11.862 -6.35,0.094 -11.569,5.308 -11.667,11.667 C -11.871,-5.376 -6.673,-0.06 0,0"
             style="fill:#08a7c1;fill-opacity:1;fill-rule:evenodd;stroke:none"
             id="path30" /></g><g
           id="g32"
           transform="translate(189.4243,291.1885)"><path
             d="m 0,0 c 3.643,0 7.349,0.391 10.901,-0.166 1.717,-0.272 3.15,-2.329 4.714,-3.579 -1.474,-1.177 -2.907,-3.302 -4.428,-3.37 -7.617,-0.344 -15.271,-0.344 -22.888,0.025 -1.449,0.072 -2.792,2.342 -4.186,3.6 1.479,1.156 2.852,3.103 4.454,3.311 C -7.68,0.318 -3.816,-0.021 0,-0.021 L 0,0 z"
             style="fill:#08a7c1;fill-opacity:1;fill-rule:evenodd;stroke:none"
             id="path34" /></g><g
           id="g36"
           transform="translate(132.5396,185.6768)"><path
             d="m 0,0 c 0,24.885 0.127,49.766 -0.102,74.646 -0.046,5.071 1.109,6.924 6.601,6.885 33.58,-0.255 67.161,-0.228 100.742,-0.021 5.155,0.035 6.409,-1.699 6.397,-6.587 -0.154,-49.762 -0.09,-99.527 -0.098,-149.288 -0.004,-6.823 -0.047,-6.861 -7.119,-6.861 -33.233,-0.012 -66.465,0.094 -99.697,-0.11 -5.164,-0.029 -6.907,1.288 -6.843,6.694 C 0.157,-49.762 0.004,-24.881 0,0"
             style="fill:#ffffff;fill-opacity:1;fill-rule:evenodd;stroke:none"
             id="path38" /></g><g
           id="g40"
           transform="translate(132.5396,185.6768)"><path
             d="m 0,0 c 0,24.885 0.127,49.766 -0.102,74.646 -0.046,5.071 1.109,6.924 6.601,6.885 33.58,-0.255 67.161,-0.228 100.742,-0.021 5.155,0.035 6.409,-1.699 6.397,-6.587 -0.154,-49.762 -0.09,-99.527 -0.098,-149.288 -0.004,-6.823 -0.047,-6.861 -7.119,-6.861 -33.233,-0.012 -66.465,0.094 -99.697,-0.11 -5.164,-0.029 -6.907,1.288 -6.843,6.694 C 0.157,-49.762 0.004,-24.881 0,0 z"
             style="fill:none;stroke:#08a7c1;stroke-opacity:1;stroke-width:4.352;stroke-linecap:butt;stroke-linejoin:miter;stroke-miterlimit:10;stroke-dasharray:none"
             id="path42" /></g><g
           id="g44"
           transform="translate(194.0444,103.1963)"><path
             d="m 0,0 c 8.534,5.262 14.999,12.385 19.895,21.123 4.169,7.434 8.679,14.689 13.218,21.905 1.883,2.989 4.102,6.44 0.523,8.688 -2.427,1.53 -7.111,1.955 -9.474,0.599 C 18.828,49.238 14.217,44.864 9.478,40.823 -3.319,29.887 -16.015,18.832 -28.795,7.871 c -2.827,-2.423 -6.15,-4.611 -9.07,-0.561 -2.665,3.702 0.446,5.937 3.086,8.156 31.702,26.649 63.379,53.328 95.038,80.023 2.368,1.993 6.658,4.359 2.676,7.746 -1.382,1.173 -5.736,0.503 -7.747,-0.615 C 28.65,87.928 2.205,73.069 -24.111,57.985 c -3.494,-2.002 -5.934,-5.767 -9.283,-8.113 -2.006,-1.407 -4.833,-1.641 -7.289,-2.402 -0.077,2.771 -1.335,6.524 -0.008,8.123 3.514,4.232 7.688,8.334 12.422,11.062 24.482,14.103 49.214,27.78 73.886,41.555 3.965,2.214 8.309,3.834 12.011,6.404 1.776,1.234 5.334,3.74 4.479,6.143 -2.022,2.082 -5.117,2.188 -7.152,2.027 -2.342,-0.196 -4.603,-1.747 -6.851,-2.814 -29.501,-13.899 -59.091,-27.605 -88.375,-41.941 -5.368,-2.627 -9.61,-7.693 -14.106,-11.913 -2.325,-2.185 -4.186,-5.27 -7.723,-2.491 -3.536,2.788 -2.367,6.32 0.293,8.632 6.18,5.377 12.152,11.527 19.326,15.136 24.307,12.236 49.09,23.491 73.686,35.144 1.224,0.583 2.337,1.382 3.502,2.078 -0.132,0.544 -0.268,1.089 -0.399,1.641 -2.819,-0.45 -5.857,-0.36 -8.424,-1.415 -28.218,-11.615 -56.473,-23.164 -84.444,-35.358 -5.265,-2.295 -9.469,-7.195 -13.88,-11.22 -2.402,-2.189 -4.378,-4.948 -7.846,-2.27 -3.698,2.861 -1.913,5.679 0.352,8.543 5.551,7.022 12.381,12.037 20.763,15.407 21.761,8.747 43.356,17.898 65.015,26.912 1.449,0.599 2.809,1.39 4.217,2.091 -0.133,0.502 -0.264,0.999 -0.396,1.505 -2.648,-0.54 -5.428,-0.735 -7.931,-1.671 -24.88,-9.286 -49.957,-18.148 -74.421,-28.441 -6.758,-2.84 -13.112,-9.143 -17.154,-15.454 -12.895,-20.134 -24.613,-41.015 -36.79,-61.599 -0.926,-1.572 -1.912,-3.102 -2.886,-4.671 l 55.045,-57.199 c 0.203,0.688 0.655,1.875 0.858,2.563 C -45.078,-31.588 -23.584,-14.536 0,0"
             style="fill:#ffffff;fill-opacity:1;fill-rule:evenodd;stroke:none"
             id="path46" /></g><g
           id="g48"
           transform="translate(189.4243,291.1885)"><path
             d="m 0,0 c 3.643,0 7.349,0.391 10.901,-0.166 1.717,-0.272 3.15,-2.329 4.714,-3.579 -1.474,-1.177 -2.907,-3.302 -4.428,-3.37 -7.617,-0.344 -15.271,-0.344 -22.888,0.025 -1.449,0.072 -2.792,2.342 -4.186,3.6 1.479,1.156 2.852,3.103 4.454,3.311 C -7.68,0.318 -3.816,-0.021 0,-0.021 L 0,0 z"
             style="fill:#08a7c1;fill-opacity:1;fill-rule:evenodd;stroke:none"
             id="path50" /></g></g></g><g
       id="g52"><g
         id="g54"
         clip-path="url(#clipPath56)"><g
           id="g60"
           transform="translate(120.4307,67.6533)"><path
             d="m 0,0 c 28.536,4.433 50.879,21.484 74.463,36.021 8.536,5.261 14.999,12.384 19.896,21.123 4.169,7.433 8.679,14.688 13.218,21.905 1.882,2.988 4.101,6.439 0.523,8.687 -2.428,1.531 -7.111,1.955 -9.475,0.6 C 93.292,85.259 88.68,80.885 83.942,76.844 71.144,65.907 58.449,54.853 45.668,43.892 42.842,41.469 39.519,39.28 36.599,43.33 c -2.665,3.702 0.446,5.938 3.085,8.156 31.702,26.65 63.379,53.328 95.039,80.024 2.367,1.993 5.746,4.344 2.333,7.437 -1.343,1.216 -5.393,0.812 -7.403,-0.306 C 103.114,123.948 76.669,109.09 50.352,94.006 46.859,92.004 44.419,88.238 41.07,85.893 39.064,84.485 36.237,84.252 33.781,83.49 c -0.077,2.772 -1.335,6.525 -0.009,8.123 3.515,4.233 7.688,8.334 12.424,11.063 24.481,14.102 49.213,27.779 73.885,41.554 3.965,2.214 8.309,3.834 12.011,6.405 1.777,1.233 4.769,3.328 3.629,6.142 -1.699,2.473 -4.266,2.189 -6.303,2.028 -2.341,-0.197 -4.602,-1.747 -6.851,-2.815 -29.5,-13.898 -59.09,-27.604 -88.374,-41.94 -5.368,-2.627 -9.61,-7.694 -14.107,-11.913 -2.324,-2.186 -5.036,-5.748 -8.572,-2.969 -3.536,2.788 -1.517,6.798 1.143,9.109 6.18,5.377 12.152,11.528 19.326,15.136 24.307,12.236 49.09,23.491 73.685,35.145 1.225,0.583 2.338,1.381 3.502,2.078 -0.13,0.544 -0.267,1.089 -0.399,1.64 -2.817,-0.45 -5.856,-0.36 -8.424,-1.415 C 72.13,149.246 43.875,137.697 15.904,125.504 10.638,123.209 6.435,118.309 2.023,114.283 c -2.401,-2.188 -5.227,-5.425 -8.695,-2.747 -3.698,2.86 -1.063,6.156 1.202,9.021 5.551,7.021 12.381,12.037 20.762,15.407 21.761,8.747 43.357,17.897 65.015,26.912 1.449,0.599 2.81,1.39 4.217,2.091 -0.132,0.502 -0.264,0.999 -0.396,1.505 -2.647,-0.54 -5.427,-0.736 -7.93,-1.671 -24.881,-9.286 -49.957,-18.149 -74.421,-28.442 -6.758,-2.839 -13.112,-9.142 -17.154,-15.454 -12.895,-20.134 -24.613,-41.014 -36.79,-61.598 -0.926,-1.573 -1.913,-3.103 -2.886,-4.671 -7.79,5.632 -7.782,5.623 -3.038,13.622 11.335,19.151 22.666,38.307 34.009,57.45 5.806,9.813 13.754,16.95 24.652,20.966 24.14,8.913 48.18,18.127 72.236,27.269 7.472,2.835 14.446,3.52 20.779,-2.804 0.965,-0.957 3.728,-0.783 5.376,-0.26 7.762,2.448 14.392,1.335 19.432,-5.363 4.072,1.095 7.94,2.728 11.927,3.102 11.165,1.046 17.876,-7.91 14.506,-18.582 -0.497,-1.577 -0.187,-3.88 0.641,-5.33 4.246,-7.412 3.502,-13.741 -3.247,-19.47 -10.315,-8.763 -20.855,-17.264 -31.72,-26.219 1.497,-1.339 2.828,-2.465 4.089,-3.663 5.747,-5.437 6.716,-12.377 2.602,-19.204 C 112.903,69.019 108.028,62.188 104.317,54.772 95.749,37.627 80.686,27.66 65.041,18.412 52.52,11.012 39.756,3.986 26.768,-2.542 21.506,-5.189 15.403,-7.043 9.576,-7.387 6.291,-7.583 2.789,-3.966 -0.612,-2.07 -0.408,-1.382 -0.204,-0.688 0,0"
             style="fill:#08a7c1;fill-opacity:1;fill-rule:evenodd;stroke:none"
             id="path62" /></g><g
           id="g64"
           transform="translate(120.4307,67.6533)"><path
             d="m 0,0 c 28.536,4.433 50.879,21.484 74.463,36.021 8.536,5.261 14.999,12.384 19.896,21.123 4.169,7.433 8.679,14.688 13.218,21.905 1.882,2.988 4.101,6.439 0.523,8.687 -2.428,1.531 -7.111,1.955 -9.475,0.6 C 93.292,85.259 88.68,80.885 83.942,76.844 71.144,65.907 58.449,54.853 45.668,43.892 42.842,41.469 39.519,39.28 36.599,43.33 c -2.665,3.702 0.446,5.938 3.085,8.156 31.702,26.65 63.379,53.328 95.039,80.024 2.367,1.993 5.746,4.344 2.333,7.437 -1.343,1.216 -5.393,0.812 -7.403,-0.306 C 103.114,123.948 76.669,109.09 50.352,94.006 46.859,92.004 44.419,88.238 41.07,85.893 39.064,84.485 36.237,84.252 33.781,83.49 c -0.077,2.772 -1.335,6.525 -0.009,8.123 3.515,4.233 7.688,8.334 12.424,11.063 24.481,14.102 49.213,27.779 73.885,41.554 3.965,2.214 8.309,3.834 12.011,6.405 1.777,1.233 4.769,3.328 3.629,6.142 -1.699,2.473 -4.266,2.189 -6.303,2.028 -2.341,-0.197 -4.602,-1.747 -6.851,-2.815 -29.5,-13.898 -59.09,-27.604 -88.374,-41.94 -5.368,-2.627 -9.61,-7.694 -14.107,-11.913 -2.324,-2.186 -5.036,-5.748 -8.572,-2.969 -3.536,2.788 -1.517,6.798 1.143,9.109 6.18,5.377 12.152,11.528 19.326,15.136 24.307,12.236 49.09,23.491 73.685,35.145 1.225,0.583 2.338,1.381 3.502,2.078 -0.13,0.544 -0.267,1.089 -0.399,1.64 -2.817,-0.45 -5.856,-0.36 -8.424,-1.415 C 72.13,149.246 43.875,137.697 15.904,125.504 10.638,123.209 6.435,118.309 2.023,114.283 c -2.401,-2.188 -5.227,-5.425 -8.695,-2.747 -3.698,2.86 -1.063,6.156 1.202,9.021 5.551,7.021 12.381,12.037 20.762,15.407 21.761,8.747 43.357,17.897 65.015,26.912 1.449,0.599 2.81,1.39 4.217,2.091 -0.132,0.502 -0.264,0.999 -0.396,1.505 -2.647,-0.54 -5.427,-0.736 -7.93,-1.671 -24.881,-9.286 -49.957,-18.149 -74.421,-28.442 -6.758,-2.839 -13.112,-9.142 -17.154,-15.454 -12.895,-20.134 -24.613,-41.014 -36.79,-61.598 -0.926,-1.573 -1.913,-3.103 -2.886,-4.671 -7.79,5.632 -7.782,5.623 -3.038,13.622 11.335,19.151 22.666,38.307 34.009,57.45 5.806,9.813 13.754,16.95 24.652,20.966 24.14,8.913 48.18,18.127 72.236,27.269 7.472,2.835 14.446,3.52 20.779,-2.804 0.965,-0.957 3.728,-0.783 5.376,-0.26 7.762,2.448 14.392,1.335 19.432,-5.363 4.072,1.095 7.94,2.728 11.927,3.102 11.165,1.046 17.876,-7.91 14.506,-18.582 -0.497,-1.577 -0.187,-3.88 0.641,-5.33 4.246,-7.412 3.502,-13.741 -3.247,-19.47 -10.315,-8.763 -20.855,-17.264 -31.72,-26.219 1.497,-1.339 2.828,-2.465 4.089,-3.663 5.747,-5.437 6.716,-12.377 2.602,-19.204 C 112.903,69.019 108.028,62.188 104.317,54.772 95.749,37.627 80.686,27.66 65.041,18.412 52.52,11.012 39.756,3.986 26.768,-2.542 21.506,-5.189 15.403,-7.043 9.576,-7.387 6.291,-7.583 2.789,-3.966 -0.612,-2.07 -0.408,-1.382 -0.204,-0.688 0,0 z"
             style="fill:none;stroke:#ffffff;stroke-opacity:1;stroke-width:1.306;stroke-linecap:butt;stroke-linejoin:bevel;stroke-miterlimit:10;stroke-dasharray:none"
             id="path66" /></g><g
           id="g68"
           transform="translate(92.7534,23.9141)"><path
             d="m 0,0 c -24.124,24.201 -48.367,48.504 -72.292,72.505 9.066,9.073 18.298,18.313 27.244,27.265 C -21.175,75.785 3.137,51.368 27.159,27.239 18.658,18.718 9.427,9.461 0,0"
             style="fill:#08a7c1;fill-opacity:1;fill-rule:evenodd;stroke:none"
             id="path70" /></g><g
           id="g72"
           transform="translate(92.7534,23.9141)"><path
             d="m 0,0 c -24.124,24.201 -48.367,48.504 -72.292,72.505 9.066,9.073 18.298,18.313 27.244,27.265 C -21.175,75.785 3.137,51.368 27.159,27.239 18.658,18.718 9.427,9.461 0,0 z"
             style="fill:none;stroke:#ffffff;stroke-opacity:1;stroke-width:1.306;stroke-linecap:butt;stroke-linejoin:bevel;stroke-miterlimit:10;stroke-dasharray:none"
             id="path74" /></g></g></g></g></svg>