<?xml version="1.0" encoding="UTF-8" standalone="no"?>
<!-- Created with Inkscape (http://www.inkscape.org/) -->

<svg
   xmlns:dc="http://purl.org/dc/elements/1.1/"
   xmlns:cc="http://creativecommons.org/ns#"
   xmlns:rdf="http://www.w3.org/1999/02/22-rdf-syntax-ns#"
   xmlns:svg="http://www.w3.org/2000/svg"
   xmlns="http://www.w3.org/2000/svg"
   xmlns:sodipodi="http://sodipodi.sourceforge.net/DTD/sodipodi-0.dtd"
   xmlns:inkscape="http://www.inkscape.org/namespaces/inkscape"
   width="108"
   height="108"
   viewBox="0 0 108 108"
   id="svg7015"
   version="1.1"
   inkscape:version="0.91 r"
   sodipodi:docname="settings.svg">
  <defs
     id="defs7017" />
  <sodipodi:namedview
     id="base"
     pagecolor="#ffffff"
     bordercolor="#666666"
     borderopacity="1.0"
     inkscape:pageopacity="0.0"
     inkscape:pageshadow="2"
     inkscape:zoom="5.6"
     inkscape:cx="71.492114"
     inkscape:cy="33.143927"
     inkscape:document-units="px"
     inkscape:current-layer="layer1"
     showgrid="false"
     units="px"
     inkscape:window-width="1920"
     inkscape:window-height="1064"
     inkscape:window-x="0"
     inkscape:window-y="16"
     inkscape:window-maximized="0" />
  <metadata
     id="metadata7020">
    <rdf:RDF>
      <cc:Work
         rdf:about="">
        <dc:format>image/svg+xml</dc:format>
        <dc:type
           rdf:resource="http://purl.org/dc/dcmitype/StillImage" />
        <dc:title></dc:title>
      </cc:Work>
    </rdf:RDF>
  </metadata>
  <g
     inkscape:label="Layer 1"
     inkscape:groupmode="layer"
     id="layer1"
     transform="translate(0,-944.36216)">
    <path
       id="path7693"
       d="m 54.00721,964.36212 c -1.961049,0 -3.885445,0.1763 -5.755645,0.49493 l -0.912831,9.66698 c -1.934187,0.53896 -3.764812,1.29257 -5.477117,2.25818 l -7.473184,-6.17127 c -3.156486,2.23371 -5.919661,4.9799 -8.153866,8.13545 l 6.188805,7.47059 c -0.964781,1.70975 -1.735356,3.54439 -2.274391,5.47536 l -9.653941,0.91767 C 20.176168,994.47933 20,996.40316 20,998.38129 c 0,1.96431 0.17508,3.88041 0.495108,5.75371 l 9.654621,0.9125 c 0.539061,1.9309 1.309678,3.7657 2.274391,5.4752 l -6.173369,7.4708 c 2.230125,3.1469 4.97494,5.9062 8.122586,8.1353 l 7.488824,-6.1866 c 1.713393,0.9664 3.54157,1.7344 5.477117,2.2735 l 0.912831,9.6669 c 1.8702,0.3187 3.794596,0.4796 5.755645,0.4796 1.96098,0 3.86994,-0.1609 5.740141,-0.4796 l 0.912829,-9.6669 c 1.935616,-0.5391 3.763725,-1.3071 5.477118,-2.2735 l 7.488824,6.1866 c 3.147921,-2.2294 5.892736,-4.9886 8.122587,-8.1353 l -6.17337,-7.4708 c 0.964785,-1.7095 1.735359,-3.5443 2.274394,-5.4752 l 9.654615,-0.9125 C 87.82492,1002.2617 88,1000.3456 88,998.38129 c 0,-1.96102 -0.176168,-3.8836 -0.495108,-5.75382 l -9.654615,-0.91246 c -0.539062,-1.93097 -1.309677,-3.76561 -2.274394,-5.47524 l 6.188806,-7.4707 c -2.234135,-3.15565 -4.99731,-5.90177 -8.153867,-8.13543 l -7.473184,6.17129 c -1.712305,-0.96561 -3.54293,-1.71921 -5.477118,-2.25821 l -0.912829,-9.66696 c -1.870201,-0.31862 -3.779161,-0.49494 -5.740141,-0.49494 z m 0,21.05031 c 7.150866,0 12.934935,5.79711 12.934935,12.9455 0,7.14867 -5.783593,12.94567 -12.934935,12.94567 -7.150866,0 -12.949896,-5.797 -12.949896,-12.94567 0,-7.14839 5.79903,-12.9455 12.949896,-12.9455 z"
       inkscape:connector-curvature="0"
       style="fill:#ffffff;fill-opacity:1" />
  </g>
</svg>
