<?xml version="1.0" encoding="UTF-8" standalone="no"?>
<svg
   xmlns:dc="http://purl.org/dc/elements/1.1/"
   xmlns:cc="http://creativecommons.org/ns#"
   xmlns:rdf="http://www.w3.org/1999/02/22-rdf-syntax-ns#"
   xmlns:svg="http://www.w3.org/2000/svg"
   xmlns="http://www.w3.org/2000/svg"
   xmlns:sodipodi="http://sodipodi.sourceforge.net/DTD/sodipodi-0.dtd"
   xmlns:inkscape="http://www.inkscape.org/namespaces/inkscape"
   width="100%"
   height="100%"
   viewBox="0 0 100 100"
   id="svg2"
   version="1.1"
   inkscape:version="0.91 r13725"
   sodipodi:docname="SVG_logo.svg"
   inkscape:export-filename="/home/the-scrabi/Projects/SVGredirect/app/src/main/res/mipmap-xxxhdpi/ic_launcher.png"
   inkscape:export-xdpi="172.8"
   inkscape:export-ydpi="172.8">
  <metadata
     id="metadata36">
    <rdf:RDF>
      <cc:Work
         rdf:about="">
        <dc:format>image/svg+xml</dc:format>
        <dc:type
           rdf:resource="http://purl.org/dc/dcmitype/StillImage" />
        <dc:title>SVG Logo</dc:title>
        <dc:description>Changes where made using the original logo:
https://upload.wikimedia.org/wikipedia/commons/0/02/SVG_logo.svg</dc:description>
      </cc:Work>
    </rdf:RDF>
  </metadata>
  <defs
     id="defs34">
    <filter
       style="color-interpolation-filters:sRGB;"
       inkscape:label="Drop Shadow"
       id="filter4550">
      <feFlood
         flood-opacity="0.2"
         flood-color="rgb(0,0,0)"
         result="flood"
         id="feFlood4552" />
      <feComposite
         in="flood"
         in2="SourceGraphic"
         operator="in"
         result="composite1"
         id="feComposite4554" />
      <feGaussianBlur
         in="composite1"
         stdDeviation="1"
         result="blur"
         id="feGaussianBlur4556" />
      <feOffset
         dx="1.4"
         dy="1.63934"
         result="offset"
         id="feOffset4558" />
      <feComposite
         in="SourceGraphic"
         in2="offset"
         operator="over"
         result="composite2"
         id="feComposite4560" />
    </filter>
  </defs>
  <sodipodi:namedview
     pagecolor="#ffffff"
     bordercolor="#666666"
     borderopacity="1"
     objecttolerance="10"
     gridtolerance="10"
     guidetolerance="10"
     inkscape:pageopacity="0"
     inkscape:pageshadow="2"
     inkscape:window-width="1920"
     inkscape:window-height="1044"
     id="namedview32"
     showgrid="false"
     inkscape:zoom="5.869568"
     inkscape:cx="0.54019858"
     inkscape:cy="48.210305"
     inkscape:window-x="1920"
     inkscape:window-y="0"
     inkscape:window-maximized="1"
     inkscape:current-layer="svg2" />
  <title
     id="title4">SVG Logo</title>
  <g
     id="g4298"
     style="filter:url(#filter4550)"
     transform="matrix(0.98292076,0,0,0.98292076,0.77278561,0.32149715)">
    <g
       transform="matrix(1.061536,0,0,1.061536,-3.546395,-22.568459)"
       id="g4285">
      <rect
         style="opacity:1;fill:#000000;fill-opacity:1;fill-rule:evenodd;stroke:none;stroke-width:5;stroke-linecap:butt;stroke-linejoin:miter;stroke-miterlimit:4;stroke-dasharray:none;stroke-opacity:1"
         id="rect4251"
         width="89.378525"
         height="43.508881"
         x="6.150897"
         y="26.90733"
         rx="5.3645477"
         ry="4.7786703" />
      <path
         id="shine"
         d="m 15.504458,29.634729 71.394,0 c 2.908,0 5.312,2.385 5.312,5.315 l 0,17.91 c -27.584,-3.403 -54.926,-8.125 -82.011,-7.683 l 0,-10.227 c 10e-4,-2.93 2.391,-5.315 5.305,-5.315 l 0,0 z"
         inkscape:connector-curvature="0"
         style="fill:#3f3f3f" />
      <g
         id="svg-text"
         transform="translate(0.84745763,-24.576271)">
        <title
           id="title27">SVG</title>
        <path
           id="S"
           d="m 18.312,72.927 c -2.103,-2.107 -3.407,-5.028 -3.407,-8.253 0,-6.445 5.223,-11.672 11.666,-11.672 6.446,0 11.667,5.225 11.667,11.672 l -6.832,0 c 0,-2.674 -2.168,-4.837 -4.835,-4.837 -2.663,0 -4.838,2.163 -4.838,4.837 0,1.338 0.549,2.536 1.415,3.42 l 0,0 c 0.883,0.874 2.101,1.405 3.423,1.405 l 0,0.012 c 3.232,0 6.145,1.309 8.243,3.416 l 0,0 c 2.118,2.111 3.424,5.034 3.424,8.248 0,6.454 -5.221,11.68 -11.667,11.68 -6.442,0 -11.666,-5.222 -11.666,-11.68 l 6.828,0 c 0,2.679 2.175,4.835 4.838,4.835 2.667,0 4.835,-2.156 4.835,-4.835 0,-1.329 -0.545,-2.527 -1.429,-3.407 l 0,0 C 29.113,76.888 27.895,76.35 26.571,76.35 l 0,0 c -3.23,0 -6.142,-1.314 -8.259,-3.423 l 0,0 0,0 z"
           inkscape:connector-curvature="0"
           style="fill:#ffffff;stroke:#000000;stroke-width:0.50349998" />
        <polygon
           id="V"
           points="45.082,53.005 49.92,76.342 54.755,53.005 61.588,53.005 53.344,92.854 46.494,92.854 38.236,53.005 "
           style="fill:#ffffff;stroke:#000000;stroke-width:0.50349998" />
        <path
           id="G"
           d="m 73.255,69.513 11.683,0 0,11.664 0,0 c 0,6.452 -5.226,11.678 -11.669,11.678 -6.441,0 -11.666,-5.226 -11.666,-11.678 l 0,0 0,-16.501 -0.017,0 C 61.586,58.229 66.827,53 73.253,53 c 6.459,0 11.683,5.225 11.683,11.676 l -6.849,0 c 0,-2.674 -2.152,-4.837 -4.834,-4.837 -2.647,0 -4.82,2.163 -4.82,4.837 l 0,16.501 0,0 c 0,2.675 2.173,4.837 4.82,4.837 2.682,0 4.834,-2.162 4.834,-4.827 l 0,-0.012 0,-4.827 -4.834,0 0.002,-6.835 0,0 z"
           inkscape:connector-curvature="0"
           style="fill:#ffffff;stroke:#000000;stroke-width:0.50349998" />
      </g>
    </g>
    <text
       transform="scale(0.76477689,1.3075709)"
       sodipodi:linespacing="125%"
       id="text4294"
       y="64.423927"
       x="4.9529014"
       style="font-style:normal;font-weight:normal;font-size:25.45521927px;line-height:125%;font-family:sans-serif;letter-spacing:0px;word-spacing:0px;fill:#000000;fill-opacity:1;stroke:none;stroke-width:1px;stroke-linecap:butt;stroke-linejoin:miter;stroke-opacity:1"
       xml:space="preserve"><tspan
         style="font-style:normal;font-variant:normal;font-weight:normal;font-stretch:normal;font-family:monospace;-inkscape-font-specification:monospace"
         y="64.423927"
         x="4.9529014"
         id="tspan4296"
         sodipodi:role="line">Redirect</tspan></text>
  </g>
</svg>
