<?xml version="1.0" encoding="UTF-8" standalone="no"?>
<!-- Created with Inkscape (http://www.inkscape.org/) -->

<svg
   xmlns:dc="http://purl.org/dc/elements/1.1/"
   xmlns:cc="http://creativecommons.org/ns#"
   xmlns:rdf="http://www.w3.org/1999/02/22-rdf-syntax-ns#"
   xmlns:svg="http://www.w3.org/2000/svg"
   xmlns="http://www.w3.org/2000/svg"
   xmlns:sodipodi="http://sodipodi.sourceforge.net/DTD/sodipodi-0.dtd"
   xmlns:inkscape="http://www.inkscape.org/namespaces/inkscape"
   width="192"
   height="192"
   id="svg3759"
   version="1.1"
   inkscape:version="0.48.5 r10040"
   sodipodi:docname="WaveUp-icon-material.svg">
  <defs
     id="defs3761">
    <path
       id="a"
       d="M 0,0 H 24 V 24 H 0 z"
       inkscape:connector-curvature="0" />
  </defs>
  <sodipodi:namedview
     id="base"
     pagecolor="#ffffff"
     bordercolor="#666666"
     borderopacity="1.0"
     inkscape:pageopacity="0.0"
     inkscape:pageshadow="2"
     inkscape:zoom="1.959275"
     inkscape:cx="-42.335031"
     inkscape:cy="117.77217"
     inkscape:document-units="px"
     inkscape:current-layer="layer1"
     showgrid="true"
     inkscape:snap-page="true"
     inkscape:snap-grids="false"
     inkscape:snap-bbox="true"
     inkscape:snap-bbox-edge-midpoints="true"
     inkscape:window-width="1366"
     inkscape:window-height="717"
     inkscape:window-x="0"
     inkscape:window-y="0"
     inkscape:window-maximized="1"
     inkscape:snap-global="false">
    <inkscape:grid
       type="xygrid"
       id="grid3817"
       empspacing="5"
       visible="true"
       enabled="true"
       snapvisiblegridlinesonly="true" />
  </sodipodi:namedview>
  <metadata
     id="metadata3764">
    <rdf:RDF>
      <cc:Work
         rdf:about="">
        <dc:format>image/svg+xml</dc:format>
        <dc:type
           rdf:resource="http://purl.org/dc/dcmitype/StillImage" />
        <dc:title />
      </cc:Work>
    </rdf:RDF>
  </metadata>
  <g
     inkscape:label="Layer 1"
     inkscape:groupmode="layer"
     id="layer1"
     transform="translate(0,-860.36218)">
    <path
       style="fill:none;stroke:#000000;stroke-width:2.5;stroke-miterlimit:4;stroke-opacity:1;stroke-dasharray:none"
       d="M 96 1.21875 C 43.662146 1.21875 1.21875 43.662146 1.21875 96 C 1.21875 148.33785 43.662146 190.78125 96 190.78125 C 148.33785 190.78125 190.78125 148.33785 190.78125 96 C 190.78125 43.662146 148.33785 1.21875 96 1.21875 z "
       transform="translate(0,860.36218)"
       id="path3819" />
    <g
       style="fill:#ffffff;stroke:#000000;stroke-width:0.53095192;stroke-miterlimit:4;stroke-opacity:1;stroke-dasharray:none"
       id="g4343"
       transform="matrix(6.238997,2.1280299,-2.1280299,6.238997,79.971177,864.97194)">
      <path
         id="path4333"
         d="M 16,1 8,1 C 6.34,1 5,2.34 5,4 l 0,16 c 0,1.66 1.34,3 3,3 l 8,0 c 1.66,0 3,-1.34 3,-3 L 19,4 C 19,2.34 17.66,1 16,1 z m 1.25,17 -10.5,0 0,-14 10.5,0 z"
         inkscape:connector-curvature="0"
         style="fill:#ffffff;stroke:#000000;stroke-width:0.53095192;stroke-miterlimit:4;stroke-opacity:1;stroke-dasharray:none"
         sodipodi:nodetypes="sssssssssccccc" />
    </g>
    <g
       style="fill:#000000"
       id="g3813"
       transform="matrix(1.8225637,0.6521308,-0.6521308,1.8225637,121.16999,914.31052)">
      <path
         id="path3803"
         d="M 0,0 H 24 V 24 H 0 z"
         inkscape:connector-curvature="0"
         style="fill:none" />
      <path
         id="path3805"
         d="m 12,17 c 1.1,0 2,-0.9 2,-2 0,-1.1 -0.9,-2 -2,-2 -1.1,0 -2,0.9 -2,2 0,1.1 0.9,2 2,2 z M 18,8 H 17 V 6 C 17,3.24 14.76,1 12,1 9.24,1 7,3.24 7,6 h 1.9 c 0,-1.71 1.39,-3.1 3.1,-3.1 1.71,0 3.1,1.39 3.1,3.1 V 8 H 6 C 4.9,8 4,8.9 4,10 v 10 c 0,1.1 0.9,2 2,2 h 12 c 1.1,0 2,-0.9 2,-2 V 10 C 20,8.9 19.1,8 18,8 z m 0,12 H 6 V 10 h 12 v 10 z"
         inkscape:connector-curvature="0" />
    </g>
    <g
       style="fill:#ffffff;stroke:#000000;stroke-width:0.40815446;stroke-miterlimit:4;stroke-opacity:1;stroke-dasharray:none"
       id="g3782"
       transform="matrix(6.881832,-3.3638495,2.9298233,7.9013119,-45.392085,909.8712)">
      <path
         id="path3775"
         d="M 18.517084,7.3538542 V 18.584594 c 0,1.703975 -1.39416,3.098137 -3.098135,3.098137 l -5.6540966,0 c -0.836497,0 -1.626521,-0.33305 -2.2074213,-0.921696 L 1.4773402,14.580254 c 0,0 0.9759127,-0.952676 1.006894,-0.968167 0.1703974,-0.147161 0.3795216,-0.224615 0.6118818,-0.224615 0.1703975,0 0.3253042,0.04648 0.4647203,0.123926 0.030981,0.0077 3.3382409,1.905353 3.3382409,1.905353 V 6.1920534 c 0,-0.6428631 0.5189374,-1.1618008 1.1618002,-1.1618008 0.642864,0 1.161801,0.5189377 1.161801,1.1618008 V 11.61379 h 0.774534 V 4.2557187 c 0,-0.6428631 0.5189376,-1.1618007 1.1618006,-1.1618007 0.642863,0 1.161801,0.5189376 1.161801,1.1618007 V 11.61379 h 0.774534 V 5.0302526 c 0,-0.642863 0.518937,-1.1618008 1.1618,-1.1618008 0.642863,0 1.161801,0.5189378 1.161801,1.1618008 V 11.61379 h 0.774534 V 7.3538542 c 0,-0.6428631 0.518938,-1.1618008 1.161801,-1.1618008 0.642863,0 1.1618,0.5189377 1.1618,1.1618008 z"
         clip-path="url(#b)"
         inkscape:connector-curvature="0"
         style="fill:#ffffff;fill-opacity:1;stroke:#000000;stroke-width:0.40815446;stroke-miterlimit:4;stroke-opacity:1;stroke-dasharray:none" />
    </g>
  </g>
</svg>
