<?xml version="1.0" encoding="UTF-8" standalone="no"?>
<!-- Generator: Adobe Illustrator 16.0.0, SVG Export Plug-In . SVG Version: 6.00 Build 0)  -->

<svg
   xmlns:dc="http://purl.org/dc/elements/1.1/"
   xmlns:cc="http://creativecommons.org/ns#"
   xmlns:rdf="http://www.w3.org/1999/02/22-rdf-syntax-ns#"
   xmlns:svg="http://www.w3.org/2000/svg"
   xmlns="http://www.w3.org/2000/svg"
   xmlns:sodipodi="http://sodipodi.sourceforge.net/DTD/sodipodi-0.dtd"
   xmlns:inkscape="http://www.inkscape.org/namespaces/inkscape"
   version="1.1"
   id="Layer_1"
   x="0px"
   y="0px"
   width="32px"
   height="32px"
   viewBox="0 0 32 32"
   enable-background="new 0 0 32 32"
   xml:space="preserve"
   inkscape:version="0.48.4 r9939"
   sodipodi:docname="news.svg"
   inkscape:export-filename="D:\Downloads\news.png"
   inkscape:export-xdpi="135"
   inkscape:export-ydpi="135"><metadata
   id="metadata34"><rdf:RDF><cc:Work
       rdf:about=""><dc:format>image/svg+xml</dc:format><dc:type
         rdf:resource="http://purl.org/dc/dcmitype/StillImage" /><dc:title></dc:title></cc:Work></rdf:RDF></metadata><defs
   id="defs32">
	
	
	
	
	
	
	
	
	
	
	
	
	
</defs><sodipodi:namedview
   pagecolor="#ff96ff"
   bordercolor="#666666"
   borderopacity="1"
   objecttolerance="10"
   gridtolerance="10"
   guidetolerance="10"
   inkscape:pageopacity="0"
   inkscape:pageshadow="2"
   inkscape:window-width="1680"
   inkscape:window-height="987"
   id="namedview30"
   showgrid="false"
   inkscape:snap-nodes="true"
   inkscape:zoom="20.85965"
   inkscape:cx="8.9294372"
   inkscape:cy="14.434767"
   inkscape:window-x="-8"
   inkscape:window-y="-8"
   inkscape:window-maximized="1"
   inkscape:current-layer="Layer_1" />
<path
   style="fill:#ffffff;fill-rule:evenodd"
   inkscape:connector-curvature="0"
   id="path4"
   d="M 27.25928,2.0134566 H 8.3140141 c -1.4269229,0 -2.5834452,1.1731213 -2.5834452,2.6224769 v 1.748318 H 4.8694204 c -1.426923,0 -2.5834453,1.1731213 -2.5834453,2.6224768 V 26.489907 c 0,1.931018 1.5423168,3.496636 3.4445938,3.496636 H 26.398132 c 1.902277,0 3.444593,-1.565618 3.444593,-3.496636 V 4.6359335 c 0,-1.4493556 -1.157384,-2.6224769 -2.583445,-2.6224769 z m 0.861148,24.4764504 c 0,0.963323 -0.77331,1.748318 -1.722296,1.748318 H 5.7305689 c -0.9498468,0 -1.7222969,-0.784995 -1.7222969,-1.748318 V 9.0067283 c 0,-0.4825357 0.3857945,-0.8741589 0.8611484,-0.8741589 H 5.7305689 V 25.615748 c 0,0.48341 0.3849333,0.874159 0.8611483,0.874159 0.4762151,0 0.8611485,-0.390749 0.8611485,-0.874159 V 4.6359335 c 0,-0.4825358 0.3857945,-0.874159 0.8611484,-0.874159 H 27.25928 c 0.474493,0 0.861148,0.3916232 0.861148,0.874159 V 26.489907 z"
   clip-rule="evenodd" /><path
   style="fill:#ffffff;fill-rule:evenodd"
   inkscape:connector-curvature="0"
   id="path24"
   d="M 25.967557,15.416975 H 9.6057364 c -0.2376766,0 -0.4305738,0.389102 -0.4305738,0.868534 0,0.479432 0.1928972,0.868534 0.4305738,0.868534 H 25.967557 c 0.236816,0 0.430575,-0.389102 0.430575,-0.868534 0,-0.479432 -0.193759,-0.868534 -0.430575,-0.868534 z"
   clip-rule="evenodd" /><path
   style="fill:#ffffff;fill-rule:evenodd"
   inkscape:connector-curvature="0"
   id="path28"
   d="m 10.036311,13.377523 h 6.028039 c 0.476215,0 0.861149,-0.390749 0.861149,-0.874159 V 6.387748 c 0,-0.4834098 -0.384934,-0.8741589 -0.861149,-0.8741589 h -6.028039 c -0.4762146,0 -0.8611484,0.3907491 -0.8611484,0.8741589 v 6.115616 c 0,0.482536 0.3849338,0.874159 0.8611484,0.874159 z m 0.861148,-6.1191126 h 4.305743 V 11.629205 H 10.897459 V 7.2584104 z"
   clip-rule="evenodd" />
<path
   style="fill:#ffffff;fill-rule:evenodd"
   inkscape:connector-curvature="0"
   id="path24-1"
   d="M 26.014382,19.521932 H 9.652562 c -0.2376766,0 -0.4305738,0.389102 -0.4305738,0.868534 0,0.479432 0.1928972,0.868534 0.4305738,0.868534 h 16.36182 c 0.236816,0 0.430575,-0.389102 0.430575,-0.868534 0,-0.479432 -0.193759,-0.868534 -0.430575,-0.868534 z"
   clip-rule="evenodd" /><path
   style="fill:#ffffff;fill-rule:evenodd"
   inkscape:connector-curvature="0"
   id="path24-7"
   d="M 26.014394,23.796731 H 9.652574 c -0.237677,0 -0.430574,0.389102 -0.430574,0.868534 0,0.479432 0.192897,0.868534 0.430574,0.868534 h 16.36182 c 0.236816,0 0.430575,-0.389102 0.430575,-0.868534 0,-0.479432 -0.193759,-0.868534 -0.430575,-0.868534 z"
   clip-rule="evenodd" /><path
   style="fill:#ffffff;fill-rule:evenodd"
   inkscape:connector-curvature="0"
   id="path24-4"
   d="M 25.860976,6.7782288 H 18.24331 c -0.110656,0 -0.200464,0.389102 -0.200464,0.868534 0,0.479432 0.08981,0.868534 0.200464,0.868534 h 7.617666 c 0.110257,0 0.200466,-0.389102 0.200466,-0.868534 0,-0.479432 -0.09021,-0.868534 -0.200466,-0.868534 z"
   clip-rule="evenodd" /><path
   style="fill:#ffffff;fill-rule:evenodd"
   inkscape:connector-curvature="0"
   id="path24-4-0"
   d="M 25.908916,10.229869 H 18.29125 c -0.110656,0 -0.200464,0.389102 -0.200464,0.868534 0,0.479432 0.08981,0.868534 0.200464,0.868534 h 7.617666 c 0.110257,0 0.200466,-0.389102 0.200466,-0.868534 0,-0.479432 -0.09021,-0.868534 -0.200466,-0.868534 z"
   clip-rule="evenodd" /></svg>