<?xml version="1.0" encoding="UTF-8" standalone="no"?>
<!-- Generator: Adobe Illustrator 16.0.0, SVG Export Plug-In . SVG Version: 6.00 Build 0)  -->

<svg
   xmlns:dc="http://purl.org/dc/elements/1.1/"
   xmlns:cc="http://creativecommons.org/ns#"
   xmlns:rdf="http://www.w3.org/1999/02/22-rdf-syntax-ns#"
   xmlns:svg="http://www.w3.org/2000/svg"
   xmlns="http://www.w3.org/2000/svg"
   xmlns:sodipodi="http://sodipodi.sourceforge.net/DTD/sodipodi-0.dtd"
   xmlns:inkscape="http://www.inkscape.org/namespaces/inkscape"
   version="1.1"
   id="Layer_1"
   x="0px"
   y="0px"
   width="192"
   height="192"
   viewBox="0 0 192 192"
   enable-background="new 0 0 32 32"
   xml:space="preserve"
   inkscape:version="0.48.4 r9939"
   sodipodi:docname="news.svg"
   inkscape:export-filename="D:\Downloads\ic_launcher.png"
   inkscape:export-xdpi="90"
   inkscape:export-ydpi="90"><metadata
   id="metadata34"><rdf:RDF><cc:Work
       rdf:about=""><dc:format>image/svg+xml</dc:format><dc:type
         rdf:resource="http://purl.org/dc/dcmitype/StillImage" /><dc:title /></cc:Work></rdf:RDF></metadata><defs
   id="defs32" /><sodipodi:namedview
   pagecolor="#ffffff"
   bordercolor="#666666"
   borderopacity="1"
   objecttolerance="10"
   gridtolerance="10"
   guidetolerance="10"
   inkscape:pageopacity="0"
   inkscape:pageshadow="2"
   inkscape:window-width="1680"
   inkscape:window-height="987"
   id="namedview30"
   showgrid="false"
   inkscape:zoom="3.6875"
   inkscape:cx="30.408642"
   inkscape:cy="108.7587"
   inkscape:window-x="-8"
   inkscape:window-y="-8"
   inkscape:window-maximized="1"
   inkscape:current-layer="Layer_1" />
<rect
   style="fill:#ffffff;fill-opacity:1;fill-rule:evenodd;stroke:none"
   id="rect3775-1"
   width="24.677969"
   height="117.42373"
   x="26.711861"
   y="48.40678" /><rect
   style="fill:#ffffff;fill-opacity:1;fill-rule:evenodd;stroke:none"
   id="rect3775"
   width="119.59322"
   height="139.66101"
   x="46.372883"
   y="25.220339" /><g
   id="news"
   transform="matrix(4.75,0,0,4.75,20,20)">
	<path
   clip-rule="evenodd"
   d="M 29,0 H 7 C 5.343,0 4,1.342 4,3 V 5 H 3 C 1.343,5 0,6.342 0,8 v 20 c 0,2.209 1.791,4 4,4 h 24 c 2.209,0 4,-1.791 4,-4 V 3 C 32,1.342 30.656,0 29,0 z m 1,28 c 0,1.102 -0.898,2 -2,2 H 4 C 2.897,30 2,29.102 2,28 V 8 C 2,7.448 2.448,7 3,7 h 1 v 20 c 0,0.553 0.447,1 1,1 0.553,0 1,-0.447 1,-1 V 3 C 6,2.448 6.448,2 7,2 h 22 c 0.551,0 1,0.448 1,1 v 25 z"
   id="path4"
   inkscape:connector-curvature="0"
   style="fill:#006B89;fill-rule:evenodd" />
	<path
   clip-rule="evenodd"
   d="m 19.498,13.005 h 8 c 0.277,0 0.5,-0.224 0.5,-0.5 0,-0.276 -0.223,-0.5 -0.5,-0.5 h -8 c -0.275,0 -0.5,0.224 -0.5,0.5 0,0.276 0.225,0.5 0.5,0.5 z"
   id="path6"
   inkscape:connector-curvature="0"
   style="fill:#006B89;fill-rule:evenodd" />
	<path
   clip-rule="evenodd"
   d="m 19.498,10.005 h 8 c 0.277,0 0.5,-0.224 0.5,-0.5 0,-0.276 -0.223,-0.5 -0.5,-0.5 h -8 c -0.275,0 -0.5,0.224 -0.5,0.5 0,0.276 0.225,0.5 0.5,0.5 z"
   id="path8"
   inkscape:connector-curvature="0"
   style="fill:#006B89;fill-rule:evenodd" />
	<path
   clip-rule="evenodd"
   d="m 19.498,7.005 h 8 c 0.277,0 0.5,-0.224 0.5,-0.5 0,-0.276 -0.223,-0.5 -0.5,-0.5 h -8 c -0.275,0 -0.5,0.224 -0.5,0.5 0,0.276 0.225,0.5 0.5,0.5 z"
   id="path10"
   inkscape:connector-curvature="0"
   style="fill:#006B89;fill-rule:evenodd" />
	<path
   clip-rule="evenodd"
   d="m 16.5,27.004 h -8 c -0.276,0 -0.5,0.225 -0.5,0.5 0,0.277 0.224,0.5 0.5,0.5 h 8 c 0.275,0 0.5,-0.223 0.5,-0.5 0,-0.275 -0.224,-0.5 -0.5,-0.5 z"
   id="path12"
   inkscape:connector-curvature="0"
   style="fill:#006B89;fill-rule:evenodd" />
	<path
   clip-rule="evenodd"
   d="m 16.5,24.004 h -8 c -0.276,0 -0.5,0.225 -0.5,0.5 0,0.277 0.224,0.5 0.5,0.5 h 8 c 0.275,0 0.5,-0.223 0.5,-0.5 0,-0.275 -0.224,-0.5 -0.5,-0.5 z"
   id="path14"
   inkscape:connector-curvature="0"
   style="fill:#006B89;fill-rule:evenodd" />
	<path
   clip-rule="evenodd"
   d="m 16.5,21.004 h -8 c -0.276,0 -0.5,0.225 -0.5,0.5 0,0.277 0.224,0.5 0.5,0.5 h 8 c 0.275,0 0.5,-0.223 0.5,-0.5 0,-0.275 -0.224,-0.5 -0.5,-0.5 z"
   id="path16"
   inkscape:connector-curvature="0"
   style="fill:#006B89;fill-rule:evenodd" />
	<path
   clip-rule="evenodd"
   d="m 27.5,27.004 h -8 c -0.277,0 -0.5,0.225 -0.5,0.5 0,0.277 0.223,0.5 0.5,0.5 h 8 c 0.275,0 0.5,-0.223 0.5,-0.5 0,-0.275 -0.225,-0.5 -0.5,-0.5 z"
   id="path18"
   inkscape:connector-curvature="0"
   style="fill:#006B89;fill-rule:evenodd" />
	<path
   clip-rule="evenodd"
   d="m 27.5,24.004 h -8 c -0.277,0 -0.5,0.225 -0.5,0.5 0,0.277 0.223,0.5 0.5,0.5 h 8 c 0.275,0 0.5,-0.223 0.5,-0.5 0,-0.275 -0.225,-0.5 -0.5,-0.5 z"
   id="path20"
   inkscape:connector-curvature="0"
   style="fill:#006B89;fill-rule:evenodd" />
	<path
   clip-rule="evenodd"
   d="m 27.5,21.004 h -8 c -0.277,0 -0.5,0.225 -0.5,0.5 0,0.277 0.223,0.5 0.5,0.5 h 8 c 0.275,0 0.5,-0.223 0.5,-0.5 0,-0.275 -0.225,-0.5 -0.5,-0.5 z"
   id="path22"
   inkscape:connector-curvature="0"
   style="fill:#006B89;fill-rule:evenodd" />
	<path
   clip-rule="evenodd"
   d="m 27.5,15.004 h -19 c -0.276,0 -0.5,0.224 -0.5,0.5 0,0.276 0.224,0.5 0.5,0.5 h 19 c 0.275,0 0.5,-0.224 0.5,-0.5 0,-0.276 -0.225,-0.5 -0.5,-0.5 z"
   id="path24"
   inkscape:connector-curvature="0"
   style="fill:#006B89;fill-rule:evenodd" />
	<path
   clip-rule="evenodd"
   d="m 27.5,18.004 h -19 c -0.276,0 -0.5,0.225 -0.5,0.5 0,0.277 0.224,0.5 0.5,0.5 h 19 c 0.275,0 0.5,-0.223 0.5,-0.5 0,-0.275 -0.225,-0.5 -0.5,-0.5 z"
   id="path26"
   inkscape:connector-curvature="0"
   style="fill:#006B89;fill-rule:evenodd" />
	<path
   clip-rule="evenodd"
   d="m 9,13 h 7 c 0.553,0 1,-0.447 1,-1 V 5.004 c 0,-0.553 -0.447,-1 -1,-1 H 9 c -0.553,0 -1,0.447 -1,1 V 12 c 0,0.552 0.447,1 1,1 z m 1,-7 h 5 v 5 H 10 V 6 z"
   id="path28"
   inkscape:connector-curvature="0"
   style="fill:#006B89;fill-rule:evenodd" />
</g>
</svg>